:FULLY-SPECIFIED
:FORCE-ALL-JOINTS-BE-3DOF
:DEGREES
577
root 7.03943 16.3617 -3.59679 -165.707 77.6029 -172.787
lfemur -17.2226 -1.60699 -19.4244
ltibia 45.1305 -0 0
lfoot -32.8083 10.2997 -0.0211754
ltoes 6.94418 -0 0
rfemur -51.7146 -12.3787 14.0752
rtibia 46.2681 -0 0
rfoot 9.75271 5.75654 0.0114892
rtoes -31.0209 0 0
lowerback 6.79382 -0.839243 -2.18185
upperback 2.3367 -1.08854 3.50691
thorax -1.28171 -0.516196 4.93952
lowerneck -5.45302 -13.2921 -3.87969
upperneck 10.4093 -18.0095 5.02784
head 4.83612 -8.70606 0.999997
lclavicle 1.12483e-14 -8.41683e-15 -9.35473e-31
lhumerus -40.6795 -17.7245 94.4808
lradius 55.5971 -0 0
lwrist 22.1417 0 0
lhand -20.8383 -4.24467 0.0139543
lfingers 7.12502 -0 0
lthumb 5.53006 25.6525 0.0116578
rclavicle 1.12483e-14 -8.41683e-15 -9.35473e-31
rhumerus 28.1039 14.8193 -73.8303
rradius 132.816 -0 0
rwrist -46.2593 0 0
rhand -26.1938 -21.7968 0.00647032
rfingers 7.12502 -0 0
rthumb 0.358536 -51.7749 0.00622593
578
root 7.00475 16.3726 -3.60371 -164.333 79.0778 -171.442
lfemur -17.1831 -0.903238 -19.5411
ltibia 44.9377 -0 0
lfoot -32.8803 10.7291 -0.030954
ltoes 7.48317 -0 0
rfemur -51.7456 -12.5363 14.3481
rtibia 46.8897 -0 0
rfoot 9.78059 6.35538 0.0167975
rtoes -30.4807 0 0
lowerback 6.69389 -0.911579 -2.22938
upperback 2.26282 -1.18952 3.44831
thorax -1.29214 -0.56681 4.90902
lowerneck -5.55854 -13.165 -3.76681
upperneck 10.5438 -17.8486 4.95921
head 4.87656 -8.62125 0.968936
lclavicle 1.36919e-14 -7.85441e-15 -1.36723e-30
lhumerus -40.2462 -18.4174 94.6254
lradius 55.7039 -0 0
lwrist 22.0944 0 0
lhand -20.5944 -4.1608 0.020396
lfingers 7.12502 -0 0
lthumb 5.7654 25.7252 0.0170392
rclavicle 1.36919e-14 -7.85441e-15 -1.36723e-30
rhumerus 27.9062 14.4803 -73.7779
rradius 132.262 -0 0
rwrist -46.5786 0 0
rhand -26.2769 -21.9112 0.0094568
rfingers 7.12502 -0 0
rthumb 0.278318 -51.8889 0.0090996
579
root 6.97007 16.3835 -3.61063 -162.536 80.5448 -169.675
lfemur -17.145 -0.199405 -19.6574
ltibia 44.745 -0 0
lfoot -32.9524 11.1586 -0.0401925
ltoes 8.02217 -0 0
rfemur -51.7773 -12.6938 14.6213
rtibia 47.5113 -0 0
rfoot 9.80852 6.95423 0.021814
rtoes -29.9405 0 0
lowerback 6.59402 -0.983998 -2.27679
upperback 2.18905 -1.29058 3.38984
thorax -1.30255 -0.617429 4.87852
lowerneck -5.66375 -13.0377 -3.65423
upperneck 10.678 -17.6875 4.89105
head 4.91695 -8.53642 0.937941
lclavicle 1.61355e-14 -7.292e-15 -1.775e-30
lhumerus -39.8129 -19.1113 94.7651
lradius 55.8106 -0 0
lwrist 22.0472 0 0
lhand -20.3504 -4.0769 0.0264806
lfingers 7.12502 -0 0
lthumb 6.00075 25.7978 0.0221223
rclavicle 1.61355e-14 -7.292e-15 -1.775e-30
rhumerus 27.7084 14.1415 -73.7245
rradius 131.709 -0 0
rwrist -46.8979 0 0
rhand -26.3599 -22.0256 0.0122775
rfingers 7.12502 -0 0
rthumb 0.198093 -52.0028 0.0118137
580
root 6.9354 16.3945 -3.61754 -160.09 81.9993 -167.259
lfemur -17.1084 0.504503 -19.7732
ltibia 44.5522 -0 0
lfoot -33.0246 11.5881 -0.0488904
ltoes 8.56117 -0 0
rfemur -51.8099 -12.8511 14.8947
rtibia 48.1328 -0 0
rfoot 9.83651 7.55308 0.0265383
rtoes -29.4004 0 0
lowerback 6.49421 -1.0565 -2.32408
upperback 2.11538 -1.39171 3.33149
thorax -1.31293 -0.668055 4.84804
lowerneck -5.76865 -12.9102 -3.54194
upperneck 10.8118 -17.5262 4.82334
head 4.95728 -8.45156 0.907013
lclavicle 1.85791e-14 -6.72958e-15 -2.15878e-30
lhumerus -39.3796 -19.8062 94.8998
lradius 55.9173 -0 0
lwrist 21.9999 0 0
lhand -20.1065 -3.99298 0.0322079
lfingers 7.12502 -0 0
lthumb 6.2361 25.8705 0.0269068
rclavicle 1.85791e-14 -6.72958e-15 -2.15878e-30
rhumerus 27.5107 13.8028 -73.6698
rradius 131.156 -0 0
rwrist -47.2173 0 0
rhand -26.443 -22.14 0.0149323
rfingers 7.12502 -0 0
rthumb 0.117864 -52.1168 0.0143683
581
root 6.90072 16.4054 -3.62446 -156.576 83.4332 -163.774
lfemur -17.0732 1.20848 -19.8885
ltibia 44.3594 -0 0
lfoot -33.0968 12.0176 -0.057047
ltoes 9.10017 -0 0
rfemur -51.8432 -13.0083 15.1684
rtibia 48.7544 -0 0
rfoot 9.86454 8.15193 0.0309699
rtoes -28.8602 0 0
lowerback 6.39446 -1.12908 -2.37124
upperback 2.0418 -1.49292 3.27328
thorax -1.32328 -0.718686 4.81756
lowerneck -5.87324 -12.7825 -3.42995
upperneck 10.9454 -17.3648 4.75608
head 4.99755 -8.36668 0.876151
lclavicle 2.10228e-14 -6.16716e-15 -2.51858e-30
lhumerus -38.9461 -20.502 95.0295
lradius 56.024 -0 0
lwrist 21.9526 0 0
lhand -19.8625 -3.90904 0.0375777
lfingers 7.12502 -0 0
lthumb 6.47147 25.9432 0.0313927
rclavicle 2.10228e-14 -6.16716e-15 -2.51858e-30
rhumerus 27.3128 13.4643 -73.6141
rradius 130.603 -0 0
rwrist -47.5366 0 0
rhand -26.5261 -22.2544 0.0174213
rfingers 7.12502 -0 0
rthumb 0.0376295 -52.2307 0.0167632
582
root 6.86604 16.4163 -3.63138 -151.144 84.8291 -158.372
lfemur -17.0394 1.91253 -20.0035
ltibia 44.1666 -0 0
lfoot -33.1691 12.4471 -0.064662
ltoes 9.63917 -0 0
rfemur -51.8773 -13.1653 15.4424
rtibia 49.376 -0 0
rfoot 9.89262 8.75078 0.0351082
rtoes -28.32 0 0
lowerback 6.29477 -1.20175 -2.41827
upperback 1.96833 -1.5942 3.21519
thorax -1.33361 -0.769324 4.78709
lowerneck -5.97752 -12.6546 -3.31826
upperneck 11.0786 -17.2032 4.68928
head 5.03777 -8.28178 0.845356
lclavicle 2.34664e-14 -5.60475e-15 -2.85439e-30
lhumerus -38.5123 -21.1988 95.1541
lradius 56.1308 -0 0
lwrist 21.9053 0 0
lhand -19.6185 -3.82507 0.0425901
lfingers 7.12502 -0 0
lthumb 6.70683 26.0159 0.0355799
rclavicle 2.34664e-14 -5.60475e-15 -2.85439e-30
rhumerus 27.115 13.126 -73.5573
rradius 130.05 -0 0
rwrist -47.8559 0 0
rhand -26.6092 -22.3688 0.0197444
rfingers 7.12502 -0 0
rthumb -0.0426096 -52.3447 0.0189986
583
root 6.83136 16.4272 -3.6383 -141.878 86.1457 -149.135
lfemur -17.007 2.61665 -20.118
ltibia 43.9738 -0 0
lfoot -33.2415 12.8766 -0.0717349
ltoes 10.1782 -0 0
rfemur -51.9123 -13.3222 15.7166
rtibia 49.9976 -0 0
rfoot 9.92074 9.34964 0.0389528
rtoes -27.7798 0 0
lowerback 6.19513 -1.2745 -2.46518
upperback 1.89495 -1.69555 3.15722
thorax -1.34391 -0.819967 4.75662
lowerneck -6.08149 -12.5265 -3.20686
upperneck 11.2115 -17.0415 4.62293
head 5.07794 -8.19686 0.814627
lclavicle 2.591e-14 -5.04233e-15 -3.16622e-30
lhumerus -38.0781 -21.8964 95.2736
lradius 56.2375 -0 0
lwrist 21.858 0 0
lhand -19.3745 -3.74108 0.0472449
lfingers 7.12502 -0 0
lthumb 6.94221 26.0887 0.0394684
rclavicle 2.591e-14 -5.04233e-15 -3.16622e-30
rhumerus 26.917 12.7879 -73.4993
rradius 129.497 -0 0
rwrist -48.1753 0 0
rhand -26.6922 -22.4831 0.0219016
rfingers 7.12502 -0 0
rthumb -0.122853 -52.4587 0.0210743
584
root 6.79669 16.4381 -3.64522 -124.167 87.2657 -131.454
lfemur -16.976 3.32083 -20.2323
ltibia 43.781 -0 0
lfoot -33.3138 13.3061 -0.0782653
ltoes 10.7172 -0 0
rfemur -51.948 -13.4789 15.9911
rtibia 50.6192 -0 0
rfoot 9.9489 9.94849 0.0425033
rtoes -27.2396 0 0
lowerback 6.09555 -1.34733 -2.51197
upperback 1.82168 -1.79698 3.09939
thorax -1.35418 -0.870617 4.72617
lowerneck -6.18516 -12.3982 -3.09575
upperneck 11.3441 -16.8797 4.55703
head 5.11806 -8.11191 0.783965
lclavicle 2.83536e-14 -4.47992e-15 -3.45405e-30
lhumerus -37.6432 -22.5948 95.388
lradius 56.3442 -0 0
lwrist 21.8107 0 0
lhand -19.1305 -3.65708 0.051542
lfingers 7.12502 -0 0
lthumb 7.17758 26.1614 0.043058
rclavicle 2.83536e-14 -4.47992e-15 -3.45405e-30
rhumerus 26.719 12.45 -73.4402
rradius 128.943 -0 0
rwrist -48.4946 0 0
rhand -26.7753 -22.5975 0.023893
rfingers 7.12502 -0 0
rthumb -0.2031 -52.5727 0.0229904
